<svg width="40" height="40" viewBox="0 0 40 40" fill="none" xmlns="http://www.w3.org/2000/svg">
<g id="Frame 17" clip-path="url(#clip0_23_17)">
<g id="Group 105">
<g id="Group 104">
<circle id="Ellipse 3" cx="20" cy="20" r="19.5" stroke="#5FE21A"/>
<path id="Vector" d="M28.1708 9.47369H11.5791L11.8295 13.3331H21.4034V13.9186C20.005 14.4224 18.6318 15.017 17.2847 15.7058C15.6751 16.5284 14.3246 17.3402 13.2332 18.1414V25.0532L21.9051 30.5263H26.2489V13.3331H28.4212L28.1708 9.47369ZM21.0859 18.608C21.1356 18.5865 21.1862 18.5675 21.2359 18.546V22.602L21.3869 25.334L18.2619 23.2222V20.1425C18.4381 20.0219 18.6161 19.9054 18.7966 19.794C19.5208 19.3455 20.2841 18.9507 21.0859 18.608Z" fill="white"/>
</g>
</g>
</g>
<defs>
<clipPath id="clip0_23_17">
<rect width="40" height="40" fill="white"/>
</clipPath>
</defs>
</svg>
