<svg width="29" height="12" viewBox="0 0 29 12" fill="none" xmlns="http://www.w3.org/2000/svg">
<g clip-path="url(#clip0_23_174)">
<path d="M29 2.19963L28.8646 0H0L0.135431 2.19963H5.78307C5.5771 2.29335 5.39465 2.40769 5.23759 2.54171C4.71844 2.98688 4.4598 3.66261 4.4598 4.56982V5.03843C4.4598 5.97001 4.65919 6.66542 5.05701 7.12559C5.45484 7.58576 6.05769 7.81537 6.86652 7.81537C7.35463 7.81537 7.78349 7.71603 8.15122 7.51828C8.21988 7.48173 8.28571 7.43955 8.35061 7.39457V7.40113C8.35061 7.85755 8.27631 8.23899 8.12865 8.54639C7.981 8.85286 7.76374 9.08435 7.47689 9.24087C7.19004 9.39738 6.8336 9.47517 6.40473 9.47517C5.6815 9.47517 5.11814 9.27835 4.7175 8.88472C4.31591 8.4911 4.09207 7.93065 4.04317 7.20337L3.79864 3.38988H1.16715L1.375 7.43768C1.44741 8.9044 1.9233 10.0281 2.80454 10.8088C3.68484 11.5904 4.90277 11.9803 6.45928 11.9803C7.47877 11.9803 8.32898 11.8032 9.01083 11.4489C9.69175 11.0947 10.2062 10.5764 10.5532 9.8941C10.9003 9.21181 11.0733 8.37489 11.0733 7.38332C11.0733 6.96252 11.063 6.4911 11.0413 5.96814C11.0197 5.44517 10.9614 4.71228 10.8645 3.76851L8.67508 3.66073C8.62053 3.93158 8.55093 4.21556 8.46723 4.51266C8.38258 4.80975 8.27443 5.06279 8.14182 5.26991C8.00921 5.47704 7.8371 5.58107 7.62643 5.58107C7.45714 5.58107 7.33112 5.53608 7.24647 5.44611C7.16183 5.35614 7.11951 5.22118 7.11951 5.0403V4.5717C7.11951 4.37957 7.17029 4.23524 7.27375 4.13871C7.37626 4.04312 7.5305 3.99438 7.73553 3.99438H7.96125L7.84651 2.20056H12.0881V11.9813H14.8202V2.20056H15.7626V3.67011L17.8072 4.81537V4.95033L16.1698 6.13121V9.13309L21.5523 12H23.9129V2.2015H25.0923V11.9822H27.8244V2.2015H29V2.19963ZM20.0653 6.31584L21.1986 7.06467V7.48173L21.2842 9.2568L18.8822 7.91378V7.28398L20.0653 6.31584ZM20.4754 4.1284C20.023 3.71977 19.5622 3.30834 19.091 2.89316C18.8145 2.64948 18.554 2.41893 18.3066 2.19869H21.1986V4.69354L20.4754 4.1284Z" fill="black"/>
</g>
<defs>
<clipPath id="clip0_23_174">
<rect width="29" height="12" fill="white"/>
</clipPath>
</defs>
</svg>
