<svg width="30" height="12" viewBox="0 0 30 12" fill="none" xmlns="http://www.w3.org/2000/svg">
<g clip-path="url(#clip0_23_72)">
<path d="M8.89523 5.06578H7.5932V0.862053C7.06362 0.555458 6.53704 0.335464 6.01344 0.20108C5.48984 0.0666963 4.91248 0 4.28038 0C2.83799 0 1.76392 0.380258 1.05815 1.13978C0.352385 1.8993 0 3.05201 0 4.59593V7.21991C0 8.28603 0.0925757 9.19884 0.277727 9.95836C0.462878 10.7179 0.753546 11.3978 1.14873 11.998H4.24156C3.95388 11.4874 3.71995 10.9847 3.53779 10.4899C3.35562 9.99519 3.22024 9.48752 3.13065 8.9679C3.04106 8.44729 2.99627 7.90079 2.99627 7.32543V4.54915C2.99627 3.86628 3.10975 3.36956 3.33571 3.05997C3.56267 2.75039 3.88022 2.59511 4.28835 2.59511C4.39884 2.59511 4.52625 2.61302 4.67159 2.64786V5.33156L3.77171 5.97562C3.80357 6.53107 3.87822 7.07159 3.99668 7.59818C4.11514 8.12476 4.27242 8.62447 4.47051 9.09631C4.6686 9.56914 4.89855 10.0061 5.16035 10.4083H7.55438V7.56433H8.89523V11.997H11.8925V0.248859H8.89523V5.06479V5.06578Z" fill="black"/>
<path d="M13.1169 6.39669V7.43095V11.998H16.1142V7.43095V6.39669V0.249863H13.1169V6.39669Z" fill="black"/>
<path d="M22.261 5.31963L20.3388 1.26421C20.2483 1.04024 20.1278 0.848119 19.9775 0.69084C19.5972 0.294656 19.0059 0.0975571 18.2016 0.0975571C17.9906 0.0975571 17.7786 0.116472 17.5646 0.155294C17.3505 0.193121 17.1485 0.25484 16.9563 0.337461L16.7931 2.55828C16.8379 2.53937 16.8936 2.52344 16.9603 2.5105C17.027 2.49756 17.0957 2.49159 17.1664 2.49159C17.3067 2.49159 17.4053 2.5314 17.463 2.61104C17.5208 2.69067 17.5496 2.82008 17.5496 2.99926V7.05866C17.5496 7.7485 17.6203 8.35173 17.7607 8.86836C17.901 9.38499 18.1549 9.78715 18.5222 10.0748C18.8895 10.3625 19.4111 10.5059 20.088 10.5059C20.7261 10.5059 21.2128 10.3476 21.5483 10.032C21.8838 9.71648 22.0828 9.31531 22.1466 8.83054H22.261V12H25.2583V0.251855H22.261V5.32162V5.31963ZM21.4278 7.89084C21.1282 7.89084 20.9062 7.80324 20.7619 7.62705C20.6186 7.45185 20.5469 7.16915 20.5469 6.77993V4.18184C20.7569 4.67359 20.965 5.13448 21.169 5.56351L22.1177 7.55538C22.0968 7.58524 22.0739 7.61411 22.05 7.64099C21.8967 7.80722 21.6896 7.88985 21.4278 7.88985V7.89084Z" fill="black"/>
<path d="M26.4836 0.249863V6.39669V7.43095V11.998H29.4799V7.43095V6.39669V0.249863H26.4836Z" fill="black"/>
</g>
<defs>
<clipPath id="clip0_23_72">
<rect width="29.48" height="12" fill="white"/>
</clipPath>
</defs>
</svg>
