<svg width="47" height="12" viewBox="0 0 47 12" fill="none" xmlns="http://www.w3.org/2000/svg">
<g clip-path="url(#clip0_1_484)">
<path d="M4.73716 5.50962V5.42781C5.47525 5.36739 6.0014 5.1508 6.31652 4.77897C6.63072 4.40713 6.78875 3.88842 6.78875 3.22284V2.96907C6.78875 2.07388 6.50709 1.38877 5.94469 0.913753C5.38229 0.438735 4.48617 0.201691 3.25819 0.201691H0V11.8001H3.47572C4.67953 11.8001 5.55055 11.537 6.08971 11.0109C6.62794 10.4848 6.89752 9.66207 6.89752 8.54192V8.17009C6.89752 7.40783 6.74878 6.80453 6.45317 6.35926C6.15664 5.91492 5.58494 5.63139 4.73809 5.51055L4.73716 5.50962ZM3.17639 2.55168C3.48501 2.55168 3.70532 2.63534 3.83918 2.80081C3.97211 2.96721 4.03904 3.23493 4.03904 3.60397V3.80383C4.03904 4.17287 3.97211 4.4406 3.83918 4.60699C3.70625 4.77339 3.48501 4.85612 3.17639 4.85612H2.72275V2.55075H3.17639V2.55168ZM4.11155 8.39598C4.11155 8.75294 4.04462 9.01415 3.91169 9.18148C3.77876 9.34787 3.54265 9.43061 3.20335 9.43061H2.72182V6.99881H3.20335C3.54172 6.99881 3.77783 7.08247 3.91169 7.24887C4.04462 7.41527 4.11155 7.67648 4.11155 8.03437V8.39783V8.39598Z" fill="black"/>
<path d="M12.1524 4.6572H10.7812V0.200775H7.8772V11.7992H10.7812V7.1615H12.1524V11.7992H15.0564V0.200775H12.1524V4.6572Z" fill="black"/>
<path d="M17.4159 0.200775L15.8914 11.7992H18.7043L18.9311 9.23075H20.3552L20.582 11.7992H23.3959L21.8714 0.200775H17.4149H17.4159ZM19.1235 7.06203L19.5483 2.25237H19.7389L20.1637 7.06203H19.1226H19.1235Z" fill="black"/>
<path d="M29.2095 6.08227C28.9557 5.77365 28.6313 5.45015 28.2381 5.11085C27.9416 4.85057 27.6961 4.6284 27.5028 4.44341C27.3094 4.25935 27.1672 4.08459 27.0761 3.92192C26.985 3.75831 26.9395 3.57983 26.9395 3.38647V3.34093C26.9395 3.17174 26.9739 3.02952 27.0436 2.91425C27.1133 2.79898 27.2202 2.71346 27.3661 2.65582C27.5112 2.59819 27.6896 2.56937 27.9016 2.56937C28.2585 2.56937 28.5746 2.627 28.8498 2.74134C29.1249 2.85661 29.3657 2.98304 29.5711 3.12247L29.4075 0.662794C29.1593 0.487103 28.8451 0.332791 28.464 0.19986C28.0828 0.0669295 27.6413 0 27.1393 0C26.1409 0 25.3713 0.274227 24.8293 0.821752C24.2874 1.36928 24.0168 2.13061 24.0168 3.10388V3.31304C24.0168 3.8271 24.0949 4.28259 24.253 4.6786C24.4101 5.0746 24.6322 5.44086 24.9204 5.77644C25.2076 6.11202 25.5451 6.45224 25.9327 6.79712C26.1744 7.00907 26.3771 7.19219 26.5407 7.3465C26.7043 7.50081 26.8279 7.65513 26.9125 7.80944C26.9971 7.96375 27.0399 8.14967 27.0399 8.36812V8.52243C27.0399 8.80037 26.9525 9.01604 26.7768 9.16663C26.6011 9.31815 26.3259 9.39345 25.9513 9.39345C25.5767 9.39345 25.2225 9.33489 24.9074 9.21683C24.5932 9.09877 24.3171 8.97607 24.0819 8.84964L24.2548 11.4181C24.4305 11.5213 24.6341 11.6161 24.8674 11.7044C25.1007 11.7918 25.362 11.8634 25.6529 11.9182C25.9429 11.973 26.2609 12 26.6057 12C27.7315 12 28.5718 11.7109 29.1286 11.1336C29.6855 10.5564 29.9634 9.73182 29.9634 8.66094V8.43412C29.9634 7.90797 29.9011 7.46177 29.7775 7.09552C29.6538 6.72926 29.4642 6.39182 29.2104 6.0832L29.2095 6.08227Z" fill="black"/>
<path d="M35.0314 4.6572H33.6612V0.200775H30.7572V11.7992H33.6612V7.1615H35.0314V11.7992H37.9354V0.200775H35.0314V4.6572Z" fill="black"/>
<path d="M43.4627 11.7992H46.2765L44.752 0.200775H40.2956L38.7711 11.7992H41.5849L41.8117 9.23075H43.2359L43.4627 11.7992ZM42.0032 7.06203L42.428 2.25237H42.6186L43.0434 7.06203H42.0023H42.0032Z" fill="black"/>
</g>
<defs>
<clipPath id="clip0_1_484">
<rect width="46.28" height="12" fill="white"/>
</clipPath>
</defs>
</svg>
