<svg width="27" height="12" viewBox="0 0 27 12" fill="none" xmlns="http://www.w3.org/2000/svg">
<path d="M26.6733 2.21173L26.5446 0.000953219H5.1464L5.27515 2.21173H5.8989V5.82642H4.24797V3.10157C4.24797 2.36147 4.14974 1.76538 3.95422 1.31235C3.7587 0.860277 3.43443 0.528375 2.9814 0.316644C2.52837 0.105866 1.9113 0 1.12828 0H0L0.128755 2.21078H0.734382C1.03386 2.21078 1.23605 2.27659 1.34001 2.4082C1.44397 2.53982 1.49642 2.78302 1.49642 3.13782V6.03624L0.65236 6.61421C0.68288 7.15212 0.754411 7.67191 0.867907 8.17358C0.981402 8.67525 1.13209 9.14926 1.32189 9.59561C1.51168 10.042 1.732 10.4549 1.98283 10.8345H4.24893V8.19265H5.89986V12H8.6886V2.21173H9.98379V12H12.7725V2.21173H14.0038V6.57797C14.0038 7.72818 14.2222 8.56748 14.66 9.09585C15.0968 9.62518 15.7167 9.88937 16.5179 9.88937C16.9585 9.88937 17.3171 9.82547 17.5956 9.69671C17.8741 9.56796 18.0925 9.3877 18.2518 9.15498C18.4111 8.92227 18.5236 8.65617 18.5913 8.3567H18.6743V11.999H21.463V2.21078H22.7582V11.999H25.547V2.21078H26.6752L26.6733 2.21173ZM17.6624 7.56032C17.3257 7.56032 17.0672 7.46113 16.887 7.2618C16.7067 7.06342 16.6161 6.72866 16.6161 6.25751V4.15451C16.7964 4.55889 16.9976 4.9423 17.2217 5.30377L18.453 7.2618C18.434 7.28278 18.413 7.30281 18.392 7.32189C18.2117 7.48116 17.9685 7.56032 17.6624 7.56032ZM18.6724 5.23701C18.6171 5.11588 18.5627 5.00143 18.5074 4.89556C18.3853 4.65999 18.2442 4.41678 18.0858 4.16595L16.8441 2.21173H18.6733V5.23605L18.6724 5.23701Z" fill="black"/>
</svg>
