<svg width="51" height="22" viewBox="0 0 51 22" fill="none" xmlns="http://www.w3.org/2000/svg">
<g clip-path="url(#clip0_23_284)">
<path d="M10.1492 6.27223C9.5247 5.98308 8.68287 5.8385 7.62468 5.8385H4.49832V15.0597H2.91001V5.8385H0V17.5657H7.25863C8.47472 17.5657 9.42011 17.4129 10.0938 17.1074C10.7675 16.8018 11.2381 16.3035 11.5037 15.6134C11.7703 14.9233 11.9036 14.0025 11.9036 12.8521V10.0313C11.9036 9.05202 11.7672 8.25223 11.4944 7.63496C11.2217 7.01666 10.7726 6.56344 10.1481 6.27429L10.1492 6.27223ZM8.96485 12.969C8.96485 13.5011 8.92691 13.9195 8.85103 14.222C8.77515 14.5244 8.62955 14.7398 8.41217 14.8679C8.19479 14.9961 7.86975 15.0607 7.43601 15.0607H7.40628V8.31478H7.73132C8.06662 8.31478 8.32296 8.36605 8.50035 8.46756C8.67774 8.5701 8.79976 8.73928 8.86539 8.97512C8.93101 9.21198 8.96382 9.54113 8.96382 9.96153V12.97L8.96485 12.969Z" fill="black"/>
<path d="M21.5811 4.72902C20.8254 4.26555 19.8359 4.03381 18.6126 4.03381C16.8305 4.03381 15.4729 4.5547 14.5398 5.59751C13.6057 6.63929 13.1392 8.16402 13.1392 10.1686V14.2219C13.1392 14.952 13.2612 15.5867 13.5042 16.125C13.7472 16.6644 14.1194 17.0817 14.6188 17.378C15.1181 17.6744 15.7559 17.822 16.5321 17.822C17.3083 17.822 17.9717 17.6795 18.465 17.3934C18.9582 17.1073 19.3211 16.7013 19.5549 16.1753C19.7887 15.6493 19.9046 15.031 19.9046 14.3214V12.447C19.9046 11.4873 19.7518 10.7572 19.4462 10.2578C19.1407 9.75848 18.6259 9.50829 17.903 9.50829C17.4888 9.50829 17.1402 9.59749 16.8572 9.77488C16.5742 9.95227 16.3558 10.1861 16.2009 10.4752C16.0461 10.7644 15.9559 11.0771 15.9292 11.4124H15.84V9.83436C15.84 8.75566 16.0553 7.95587 16.486 7.43293C16.9166 6.90999 17.5954 6.64852 18.5224 6.64852C19.1407 6.64852 19.6318 6.76336 19.9969 6.99407C20.3619 7.22478 20.6244 7.57443 20.7854 8.04405C20.9464 8.51367 21.0274 9.11044 21.0274 9.83436V17.5667H23.7497V10.1697C23.7497 8.82846 23.5775 7.7026 23.2319 6.79207C22.8864 5.88154 22.3357 5.19454 21.58 4.73107L21.5811 4.72902ZM16.2163 12.0574C16.3086 12.002 16.4101 11.9733 16.5219 11.9733C16.7454 11.9733 16.8961 12.0471 16.9751 12.1948C17.054 12.3424 17.093 12.5711 17.093 12.8807V14.4588C17.093 14.7808 17.0571 15.0227 16.9843 15.1837C16.9115 15.3447 16.7608 15.4257 16.5311 15.4257C16.3793 15.4257 16.2614 15.3898 16.1763 15.317C16.0912 15.2442 16.0317 15.1366 15.9989 14.992C15.9661 14.8474 15.9497 14.67 15.9497 14.4598V12.3599C15.96 12.3373 15.9712 12.3158 15.9846 12.2953C16.0471 12.1937 16.124 12.1148 16.2163 12.0584V12.0574Z" fill="black"/>
<path d="M33.9134 8.34349L33.7063 5.8385H31.9908H30.9644H25.1167V17.5657H28.0257V8.34349H29.5843V17.5657H32.4933V8.34349H33.9134Z" fill="black"/>
<path d="M49.9203 1.24788C49.2108 0.416302 48.0336 0 46.39 0C45.3779 0 44.531 0.185593 43.8501 0.556778C43.1693 0.927964 42.6597 1.45398 42.3213 2.13483C41.9829 2.81568 41.8137 3.61957 41.8137 4.54651V5.07868C41.8137 5.2694 41.8353 5.44884 41.8773 5.61597C41.8978 5.69698 41.9265 5.76978 41.9634 5.83746H39.1806V15.0586H37.5923V5.83848H34.6833V17.5657H39.2205V17.6939C39.2205 18.0097 39.197 18.2578 39.1518 18.4383C39.1057 18.6187 39.0134 18.749 38.876 18.8279C38.7376 18.9069 38.5274 18.9458 38.2444 18.9458H33.7574L34.0732 21.4119H38.3828C39.119 21.4119 39.6451 21.2847 39.9609 21.0325C40.2767 20.7792 40.4766 20.2942 40.5628 19.5775H40.6417C40.7012 20.0573 40.7976 20.4306 40.9329 20.6972C41.0672 20.9638 41.2498 21.1494 41.4805 21.254C41.7102 21.3585 41.9962 21.4119 42.3387 21.4119H45.0611L45.3574 18.9951H43.0698C42.8001 18.9951 42.591 18.954 42.4433 18.872C42.2956 18.79 42.1931 18.6536 42.1377 18.4629C42.0824 18.2722 42.0537 18.0158 42.0537 17.6939V17.5636C43.2164 17.5544 44.127 17.4037 44.7801 17.1063C45.4538 16.8008 45.9244 16.3024 46.19 15.6123C46.4566 14.9223 46.5899 14.0015 46.5899 12.851V10.0302C46.5899 9.05098 46.4535 8.25119 46.1808 7.63391C45.9091 7.01869 45.463 6.56752 44.8437 6.27734C44.7863 6.20556 44.7401 6.13071 44.7114 6.05073C44.6622 5.91641 44.6376 5.71339 44.6376 5.44371V4.92077C44.6376 4.11175 44.7801 3.51908 45.0662 3.14072C45.3523 2.76236 45.7942 2.57369 46.393 2.57369C46.9919 2.57369 47.4317 2.75826 47.6953 3.12637C47.9578 3.49448 48.09 4.09329 48.09 4.9218V17.5657H51V4.70442C50.9929 3.23198 50.635 2.07946 49.9255 1.24788H49.9203ZM43.6481 12.9689C43.6481 13.5011 43.6102 13.9195 43.5343 14.2219C43.4584 14.5244 43.3128 14.7398 43.0954 14.8679C42.8781 14.9961 42.553 15.0607 42.1193 15.0607H42.0895V8.31476H42.4146C42.7499 8.31476 43.0062 8.36603 43.1836 8.46754C43.361 8.57008 43.483 8.73926 43.5487 8.9751C43.6143 9.21196 43.6471 9.54111 43.6471 9.96151V12.97L43.6481 12.9689Z" fill="black"/>
</g>
<defs>
<clipPath id="clip0_23_284">
<rect width="51" height="21.41" fill="white"/>
</clipPath>
</defs>
</svg>
