<svg width="40" height="40" viewBox="0 0 40 40" fill="none" xmlns="http://www.w3.org/2000/svg">
<g id="Frame 3" clip-path="url(#clip0_1_360)">
<g id="Group 103">
<circle id="Ellipse 4" cx="20" cy="20" r="19.5" stroke="#FF0084"/>
<g id="Group">
<path id="Vector" d="M18.5129 9.82631C17.7847 9.39733 16.8613 9.18201 15.7436 9.18201C15.1222 9.18201 14.5525 9.24126 14.0328 9.35978C13.5131 9.47829 13.0443 9.65105 12.6273 9.87639L12.3053 14.1128C12.5647 13.9659 12.8158 13.8616 13.0594 13.799C13.3021 13.7372 13.5815 13.7055 13.8977 13.7055C14.394 13.7055 14.7668 13.8582 15.0154 14.1629C15.264 14.4675 15.3883 14.9482 15.3883 15.6034V20.2804C15.3883 21.0032 15.2498 21.5373 14.9729 21.882C14.6959 22.2267 14.2755 22.3986 13.7108 22.3986C13.3722 22.3986 13.0669 22.3677 12.7958 22.3051C12.5247 22.2434 12.2594 22.1382 12 21.9913L12.3045 26.2452C12.7332 26.5056 13.2195 26.6943 13.7609 26.8128C14.3031 26.9313 14.9011 26.9905 15.5559 26.9905C16.7079 26.9905 17.6646 26.7702 18.427 26.3295C19.1894 25.8889 19.7566 25.2087 20.1295 24.2873C20.5024 23.3667 20.6884 22.1891 20.6884 20.7536V15.1952C20.6884 13.8173 20.5074 12.6848 20.1462 11.7976C19.785 10.9104 19.2403 10.2528 18.5113 9.82297L18.5129 9.82631Z" fill="white"/>
<path id="Vector_2" d="M22.6856 9.62236V20.5021V22.3324V30.4162H27.9874V22.3324V20.5021V9.62236H22.6856Z" fill="white"/>
</g>
</g>
</g>
<defs>
<clipPath id="clip0_1_360">
<rect width="40" height="40" fill="white"/>
</clipPath>
</defs>
</svg>
