<svg width="16" height="25" viewBox="0 0 16 25" fill="none" xmlns="http://www.w3.org/2000/svg">
<path id="Vector" d="M7.04372 9.93195C7.45026 9.69453 8.22714 9.57541 9.37517 9.57541C10.0879 9.57541 10.7709 9.59743 11.4219 9.64149C12.0737 9.68555 12.7172 9.75164 13.3517 9.84057V4.04197H16L15.7663 0H0L0.233721 4.04197H8.42218V5.64929C8.06254 5.6395 7.69715 5.63216 7.31941 5.63216C5.3583 5.63216 3.89919 6.02134 2.94126 6.80053C1.98333 7.5789 1.50437 8.63141 1.50437 9.95643V10.1221C1.50437 10.9061 1.69941 11.5997 2.0895 12.201C2.42033 12.7125 2.82934 13.1376 3.31406 13.4779C2.92233 13.8254 2.59891 14.2375 2.34873 14.7197C1.8747 15.631 1.63851 16.7105 1.63851 17.9588V18.2239C1.63851 19.726 1.95865 20.9801 2.59973 21.9844C3.24 22.9896 4.14278 23.7435 5.30645 24.2461C6.47012 24.7487 7.82718 25 9.37517 25C9.94301 25 10.4837 24.9665 10.9964 24.9005C11.5091 24.8344 11.9041 24.7618 12.1831 24.6851L12.4835 20.4766C12.1716 20.5207 11.8317 20.5566 11.4638 20.5843C11.096 20.6121 10.7174 20.626 10.3273 20.626C9.13486 20.626 8.21891 20.444 7.57864 20.0793C6.93756 19.7146 6.61743 19.0137 6.61743 17.9751V17.7099C6.61743 17.0694 6.74252 16.5832 6.99352 16.2519C7.24452 15.9207 7.63131 15.755 8.15472 15.755C8.71186 15.755 9.09618 15.8986 9.30768 16.1858C9.51918 16.473 9.62535 16.9699 9.62535 17.6773V18.9028H13.9698C14.0702 18.5275 14.1508 18.1432 14.2117 17.7515C14.2726 17.3599 14.3039 16.9593 14.3039 16.5505C14.3039 15.5013 14.1006 14.5932 13.6941 13.8254C13.2875 13.0577 12.6637 12.467 11.8227 12.0525C10.9816 11.638 9.90927 11.4316 8.6057 11.4316C7.93745 11.4316 7.31941 11.514 6.74745 11.6739C6.66187 11.6005 6.59274 11.5148 6.54254 11.4144C6.47012 11.2708 6.43391 11.1215 6.43391 10.9673V10.9012C6.43391 10.4925 6.63718 10.1694 7.04372 9.93195Z" fill="white"/>
</svg>
