<svg width="112" height="12" viewBox="0 0 112 12" fill="none" xmlns="http://www.w3.org/2000/svg">
<path d="M2.66263 12C1.72251 12 1.04217 11.7143 0.621588 11.1429C0.207196 10.5714 0 9.74164 0 8.65349V3.31003C0 2.22796 0.213381 1.40729 0.640143 0.848024C1.06691 0.282675 1.7287 0 2.62552 0C2.87291 0 3.09866 0.0243162 3.30277 0.0729485C3.51306 0.115501 3.69861 0.173252 3.85941 0.2462C4.02641 0.319149 4.16866 0.398176 4.28618 0.483282L4.39751 2.00608C4.21196 1.86626 4.01095 1.74772 3.79447 1.65046C3.578 1.55319 3.32751 1.50456 3.043 1.50456C2.53583 1.50456 2.1802 1.67173 1.97609 2.00608C1.77199 2.34043 1.66994 2.81459 1.66994 3.42857V8.56231C1.66994 9.16413 1.77818 9.62918 1.99465 9.95745C2.21731 10.2857 2.5915 10.4498 3.11722 10.4498C3.40791 10.4498 3.6584 10.4043 3.86869 10.3131C4.08517 10.2158 4.28308 10.0973 4.46245 9.95745L4.35112 11.5532C4.23979 11.6261 4.09754 11.696 3.92436 11.7629C3.75736 11.8298 3.56563 11.8845 3.34916 11.9271C3.13887 11.9757 2.91002 12 2.66263 12Z" fill="black"/>
<path d="M7.41833 11.8267H5.74839V0.173252H7.41833V11.8267ZM11.519 11.8267H9.84902V0.173252H11.519V11.8267ZM6.82457 5.13374H10.4149V6.54711H6.82457V5.13374Z" fill="black"/>
<path d="M12.784 11.8267L14.5746 0.173252H17.2279L19.0463 11.8267H17.4227L16.0033 1.34954H15.7992L14.4076 11.8267H12.784ZM14.3334 8.69909V7.32219H17.4784V8.69909H14.3334Z" fill="black"/>
<path d="M24.2412 11.8267L24.0186 8.99088C23.9938 8.65654 23.9382 8.35866 23.8516 8.09726C23.7712 7.82979 23.6351 7.62006 23.4434 7.46808C23.2578 7.31611 22.995 7.24012 22.6548 7.24012H21.5229V5.91793L22.8032 5.90881C23.3042 5.90274 23.6506 5.769 23.8423 5.5076C24.034 5.24012 24.1299 4.86018 24.1299 4.36778V3.23708C24.1299 2.68389 24.0371 2.26748 23.8516 1.98784C23.6722 1.70821 23.3382 1.56839 22.8496 1.56839H21.458V0.173252H22.9702C23.9598 0.173252 24.6742 0.413374 25.1133 0.893617C25.5524 1.37386 25.772 2.05775 25.772 2.94529V4.04863C25.772 4.66869 25.6483 5.17325 25.4009 5.56231C25.1597 5.95137 24.7391 6.19757 24.1392 6.30091V6.46505L23.6567 6.27356C24.1577 6.34043 24.5381 6.48328 24.7979 6.70213C25.0576 6.91489 25.2432 7.20669 25.3545 7.57751C25.472 7.94833 25.5586 8.4073 25.6143 8.95441L25.9019 11.8267H24.2412ZM20.3169 11.8267V0.173252H21.959V6.30091L21.9683 6.97568V11.8267H20.3169Z" fill="black"/>
<path d="M27.2741 11.8267L27.3576 0.173252H29.8161L31.1892 8.18845H31.2634L32.6179 0.173252H35.0764L35.1599 11.8267H33.6013L33.592 8.03343L33.6477 2.17933H33.5735L32.0705 10.541H30.3635L28.8605 2.17933H28.7863L28.8512 8.03343L28.8327 11.8267H27.2741Z" fill="black"/>
<path d="M38.5101 8.37082L36.2185 0.173252H37.8699L38.7977 4.16717L39.2337 6.23708H39.3358L39.7811 4.16717L40.681 0.173252H42.3324L40.0594 8.37082H38.5101ZM38.4915 11.8267V6.69301H40.078V11.8267H38.4915Z" fill="black"/>
<path d="M44.3936 8.10638V6.71125H45.8872C46.3449 6.71125 46.6727 6.56839 46.8706 6.28267C47.0686 5.99696 47.1675 5.57751 47.1675 5.02432V3.2462C47.1675 2.69301 47.0686 2.2766 46.8706 1.99696C46.6789 1.71125 46.3542 1.56839 45.8965 1.56839H44.4214V0.173252H45.9614C46.9449 0.173252 47.6654 0.437689 48.1231 0.966565C48.5808 1.48936 48.8096 2.23708 48.8096 3.20973V5.05167C48.8096 6.05471 48.5808 6.81459 48.1231 7.33131C47.6654 7.84802 46.9479 8.10638 45.9707 8.10638H44.3936ZM43.438 11.8267V0.173252H45.0708V7.10334L45.0894 7.89666V11.8267H43.438Z" fill="black"/>
<path d="M49.169 11.8267L50.9595 0.173252H53.6129L55.4312 11.8267H53.8077L52.3882 1.34954H52.1841L50.7925 11.8267H49.169ZM50.7183 8.69909V7.32219H53.8634V8.69909H50.7183Z" fill="black"/>
<path d="M57.2564 11.8267V0.173252H58.9264V11.8267H57.2564ZM55.3824 1.61398V0.173252H60.8004V1.61398H55.3824Z" fill="black"/>
<path d="M61.9929 11.8267V0.173252H63.6071V11.8267H61.9929ZM62.9855 11.8267V10.386H66.446V11.8267H62.9855ZM63.0505 6.59271V5.16109H66.3718V6.59271H63.0505ZM62.967 1.61398V0.173252H66.446V1.61398H62.967Z" fill="black"/>
<path d="M69.5606 11.8267H67.9V0.173252H69.5606V11.8267ZM68.8927 10.3678H72.2325V11.8267H68.8927V10.3678Z" fill="black"/>
<path d="M74.2803 11.9909C73.9772 11.9909 73.7545 11.8967 73.6123 11.7082C73.47 11.5137 73.3989 11.2401 73.3989 10.8875V10.7325C73.3989 10.3799 73.47 10.1094 73.6123 9.92097C73.7545 9.73252 73.9772 9.6383 74.2803 9.6383C74.5709 9.6383 74.7905 9.73252 74.9389 9.92097C75.0874 10.1094 75.1616 10.3799 75.1616 10.7325V10.8875C75.1616 11.2401 75.0874 11.5137 74.9389 11.7082C74.7905 11.8967 74.5709 11.9909 74.2803 11.9909Z" fill="black"/>
<path d="M77.6371 11.8267V10.4225H79.1308C79.6317 10.4225 79.9997 10.2766 80.2348 9.9848C80.476 9.68693 80.5966 9.23708 80.5966 8.63526V3.36474C80.5966 2.75684 80.476 2.30699 80.2348 2.0152C79.9997 1.71733 79.6317 1.56839 79.1308 1.56839H77.6649V0.173252H79.2143C80.2533 0.173252 81.0203 0.446808 81.5151 0.993921C82.016 1.53495 82.2665 2.32219 82.2665 3.35562V8.64438C82.2665 9.67173 82.0191 10.459 81.5243 11.0061C81.0357 11.5532 80.2657 11.8267 79.2143 11.8267H77.6371ZM76.5795 11.8267V0.173252H78.2308V11.8267H76.5795Z" fill="black"/>
<path d="M83.8999 11.8267V0.173252H85.5142V11.8267H83.8999ZM84.8926 11.8267V10.386H88.3531V11.8267H84.8926ZM84.9576 6.59271V5.16109H88.2789V6.59271H84.9576ZM84.8741 1.61398V0.173252H88.3531V1.61398H84.8741Z" fill="black"/>
<path d="M91.4028 12C91.1306 12 90.874 11.9757 90.6328 11.9271C90.3977 11.8784 90.1843 11.8146 89.9926 11.7356C89.8009 11.6565 89.637 11.5714 89.5009 11.4802L89.3896 9.85714C89.6432 10.0213 89.9215 10.1611 90.2245 10.2766C90.5276 10.3921 90.843 10.4498 91.1708 10.4498C91.6471 10.4498 91.9873 10.3191 92.1914 10.0578C92.4016 9.79027 92.5068 9.41641 92.5068 8.93617V8.52584C92.5068 8.18541 92.4604 7.8997 92.3676 7.66869C92.2749 7.43769 92.1326 7.22492 91.9409 7.0304C91.7491 6.83587 91.5048 6.6231 91.208 6.3921C90.8059 6.06991 90.4658 5.75684 90.1874 5.45289C89.9153 5.14894 89.7081 4.81155 89.5658 4.44073C89.4298 4.06383 89.3617 3.62006 89.3617 3.10942V2.79939C89.3617 1.91793 89.572 1.231 89.9926 0.738601C90.4132 0.2462 91.0441 0 91.8852 0C92.312 0 92.6831 0.0547113 92.9985 0.164134C93.3201 0.267477 93.5861 0.395136 93.7964 0.547112L93.9077 2.09726C93.6912 1.93313 93.45 1.79331 93.1841 1.67781C92.9181 1.56231 92.6119 1.50456 92.2656 1.50456C91.9749 1.50456 91.7368 1.55927 91.5512 1.66869C91.3657 1.77204 91.2296 1.93009 91.143 2.14286C91.0564 2.35562 91.0131 2.61702 91.0131 2.92705V3.12766C91.0131 3.46808 91.0657 3.75684 91.1708 3.99392C91.276 4.231 91.4368 4.45593 91.6533 4.66869C91.8759 4.87538 92.1573 5.1155 92.4975 5.38906C92.8934 5.69301 93.2119 5.99088 93.4531 6.28267C93.6943 6.56839 93.8706 6.89058 93.9819 7.24924C94.0994 7.6079 94.1582 8.04863 94.1582 8.57143V9.01824C94.1582 9.96049 93.9324 10.693 93.4809 11.2158C93.0356 11.7386 92.3429 12 91.4028 12Z" fill="black"/>
<path d="M97.2484 11.8267H95.5785V0.173252H97.2484V11.8267Z" fill="black"/>
<path d="M101.107 12C100.575 12 100.145 11.8754 99.8174 11.6261C99.4958 11.3769 99.2608 11.0182 99.1123 10.5502C98.9701 10.076 98.8989 9.5076 98.8989 8.84498V3.61094C98.8989 2.41337 99.1587 1.51368 99.6783 0.911854C100.204 0.303951 100.989 0 102.035 0C102.35 0 102.641 0.0273554 102.907 0.0820663C103.173 0.136778 103.411 0.209726 103.621 0.300912C103.831 0.386019 104.008 0.480243 104.15 0.583587L104.28 2.14286C104.039 1.96657 103.76 1.81763 103.445 1.69605C103.136 1.56839 102.78 1.50456 102.378 1.50456C101.735 1.50456 101.271 1.68693 100.986 2.05167C100.708 2.41033 100.569 2.94225 100.569 3.64742V8.8997C100.569 9.43465 100.659 9.84195 100.838 10.1216C101.017 10.4012 101.308 10.541 101.71 10.541C101.945 10.541 102.14 10.4894 102.294 10.386C102.449 10.2827 102.573 10.1459 102.666 9.97568C102.758 9.79939 102.826 9.61094 102.87 9.41033V5.80851L103.176 6.58359H101.886V5.14286H104.447V10.5502H102.833C102.777 10.8176 102.687 11.0608 102.564 11.2796C102.44 11.4985 102.26 11.6748 102.025 11.8085C101.797 11.9362 101.49 12 101.107 12ZM102.944 9.93921H104.447V11.8267H102.879L102.944 9.93921Z" fill="black"/>
<path d="M108.419 0.164134L110.479 10.0122H110.571L110.441 4.39514V0.164134H112V11.8267H109.569L107.51 1.90577H107.417L107.556 7.59574V11.8267H105.988V0.164134H108.419Z" fill="black"/>
</svg>
