<svg width="40" height="40" viewBox="0 0 40 40" fill="none" xmlns="http://www.w3.org/2000/svg">
<g id="Frame 8" clip-path="url(#clip0_1_418)">
<g id="Group 107">
<circle id="Ellipse 14" cx="20" cy="20" r="19.5" stroke="white"/>
<g id="Group 65">
<g id="Group">
<path id="Vector" d="M20.9941 21.2527C20.8704 20.4213 20.594 19.7073 20.1728 19.1307C19.7313 18.5271 19.1255 18.0975 18.3718 17.8533C17.8079 17.6705 17.1513 17.6052 16.4126 17.6577C16.8537 17.5937 17.2851 17.5451 17.6958 17.512C18.1311 17.4776 18.5691 17.4581 18.997 17.4546L19.7586 17.4484L19.1458 13.3266L20.8051 13.0798L19.9569 9L8 10.7785L8.8482 14.8583L12.4847 14.3175C11.8794 14.5705 11.3915 14.8998 11.0259 15.3034C10.3101 16.0929 10.032 17.0612 10.1984 18.1827L10.2156 18.2975C10.315 18.9669 10.5755 19.5462 10.9888 20.0186C11.157 20.2111 11.3402 20.3842 11.5372 20.5379C11.4436 20.714 11.3636 20.8982 11.2987 21.0902C11.0338 21.8682 10.9724 22.7535 11.1164 23.7209L11.1438 23.905C11.3168 25.0685 11.7213 26.0258 12.3461 26.7508C12.9757 27.482 13.7917 27.9862 14.771 28.2502C15.708 28.5023 16.7668 28.5439 17.9174 28.3725C18.3351 28.3103 18.7347 28.2255 19.106 28.1195C19.484 28.0118 19.7728 27.9129 19.9887 27.8166L20.4152 27.6263L20.1145 23.7222L20.9539 23.5973L21.0104 23.0908C21.0431 22.7994 21.0603 22.4992 21.0625 22.1972C21.0643 21.8859 21.0413 21.568 20.9945 21.2532L20.9941 21.2527Z" fill="black"/>
<g id="Group_2">
<path id="Vector_2" d="M18.3718 17.8533C17.8084 17.6705 17.1513 17.6052 16.4126 17.6577C16.8537 17.5937 17.2851 17.5451 17.6958 17.512C18.1311 17.4776 18.5691 17.4581 18.997 17.4546L19.7586 17.4484L19.1458 13.3266L20.8051 13.0798L19.9569 9L8 10.7785L8.8482 14.8583L12.4847 14.3175C11.8794 14.5705 11.3915 14.8998 11.0259 15.3034C10.3101 16.0929 10.032 17.0612 10.1984 18.1827L10.2156 18.2975C10.315 18.9669 10.5755 19.5462 10.9888 20.0186C11.157 20.2111 11.3402 20.3842 11.5372 20.5379C11.4436 20.714 11.3636 20.8982 11.2987 21.0902C11.0338 21.8682 10.9724 22.7535 11.1164 23.7209L11.1438 23.905C11.3168 25.0685 11.7213 26.0258 12.3461 26.7508C12.9757 27.482 13.7917 27.9862 14.771 28.2502C15.708 28.5023 16.7668 28.5439 17.9174 28.3725C18.3351 28.3103 18.7347 28.2255 19.106 28.1195C19.484 28.0118 19.7728 27.9129 19.9887 27.8166L20.4152 27.6263L20.1145 23.7222L20.9539 23.5973L21.0104 23.0908C21.0431 22.7994 21.0603 22.4992 21.0625 22.1972C21.0643 21.8859 21.0413 21.568 20.9945 21.2532C20.8709 20.4217 20.5945 19.7078 20.1732 19.1311C19.7317 18.5275 19.1259 18.0979 18.3722 17.8537L18.3718 17.8533ZM20.3997 22.1932C20.398 22.4718 20.3821 22.746 20.3521 23.0171L17.3633 23.4617L17.2366 22.6113C17.1637 22.1208 17.0392 21.787 16.8643 21.609C16.6891 21.4315 16.41 21.371 16.0267 21.428C15.6664 21.4814 15.4174 21.636 15.2792 21.8916C15.141 22.1473 15.1048 22.4974 15.171 22.9416L15.1984 23.1257C15.3057 23.8459 15.598 24.2998 16.0766 24.4874C16.5548 24.6751 17.2039 24.7078 18.0243 24.5855C18.2923 24.5457 18.5515 24.4971 18.8018 24.4402C19.0517 24.3837 19.2818 24.3236 19.4919 24.2614L19.7193 27.2117C19.5357 27.2939 19.2707 27.3844 18.9254 27.4828C18.5797 27.5813 18.2115 27.6595 17.8207 27.7177C16.7553 27.8762 15.7963 27.8405 14.9436 27.6109C14.091 27.3813 13.3925 26.9508 12.8481 26.3189C12.3037 25.6871 11.954 24.8499 11.799 23.8079L11.7716 23.6238C11.6427 22.7579 11.6939 21.9843 11.9257 21.3039C12.048 20.9441 12.2277 20.6248 12.4618 20.3436C12.0935 20.1573 11.7685 19.9043 11.4877 19.5833C11.1574 19.2057 10.9517 18.7448 10.8709 18.2004L10.8537 18.0856C10.7168 17.1658 10.9376 16.387 11.5164 15.7485C12.0953 15.11 13.0587 14.6906 14.4076 14.4901C14.6677 14.4512 14.9198 14.419 15.1679 14.389L15.0019 13.2737L14.5074 13.3474L9.36921 14.1117L8.79124 11.3309L13.9294 10.5666L19.2288 9.77843L19.4359 9.74753L20.0138 12.5283L19.8068 12.5592L18.393 12.7694L18.5691 13.9536L18.6137 14.2526L18.9692 16.6435L18.9912 16.7932C18.5453 16.7967 18.0958 16.8166 17.6432 16.8528C17.1902 16.889 16.7186 16.9433 16.2281 17.0161C15.4386 17.1336 14.9163 17.2956 14.6615 17.5018C14.4063 17.7085 14.2999 17.9531 14.3418 18.2366L14.3485 18.2825C14.3643 18.3898 14.4045 18.4896 14.4694 18.5818C14.5145 18.6463 14.571 18.6989 14.6372 18.7408C15.0143 18.5712 15.4311 18.4507 15.8907 18.3823C16.7875 18.2489 17.5461 18.2829 18.1678 18.4843C18.789 18.6856 19.2791 19.0318 19.6381 19.5228C19.9971 20.0138 20.2306 20.6231 20.3388 21.3512C20.3812 21.6346 20.4011 21.9159 20.3993 22.1941L20.3997 22.1932Z" fill="white"/>
<path id="Vector_3" d="M17.9639 19.1134C17.4438 18.9448 16.7788 18.9192 15.9885 19.0366C15.5964 19.0949 15.2335 19.1982 14.9094 19.3439L14.5848 19.4901L14.2842 19.2998C14.1415 19.2097 14.0214 19.0953 13.9269 18.9602C13.8042 18.7858 13.7252 18.5898 13.6938 18.3792L13.6872 18.3332C13.6104 17.8175 13.8086 17.3393 14.2453 16.9861C14.6021 16.6973 15.2012 16.4987 16.1311 16.3604C16.6323 16.2858 17.1233 16.2293 17.5908 16.1918C17.8028 16.175 18.0152 16.1613 18.2267 16.1516L17.6407 12.2117L19.2228 11.9764L18.9146 10.4946L9.58264 11.8828L9.89084 13.3646L15.5598 12.5213L15.9231 14.9652L15.2467 15.0464C14.9672 15.08 14.7314 15.1113 14.5045 15.1453C13.3176 15.3219 12.4769 15.6747 12.0067 16.1935C11.5643 16.6814 11.4013 17.2683 11.5082 17.988L11.5254 18.1028C11.5877 18.5227 11.7382 18.8644 11.9855 19.147C12.2107 19.4049 12.4641 19.6027 12.76 19.7528L13.5013 20.1281L12.9701 20.767C12.7847 20.9904 12.6478 21.2355 12.552 21.5172C12.3555 22.0938 12.3131 22.7698 12.4257 23.5262L12.4531 23.7103C12.5886 24.6221 12.8902 25.3542 13.349 25.8862C13.8091 26.42 14.3866 26.775 15.1151 26.9711C15.8755 27.176 16.7524 27.2064 17.7224 27.062C18.0836 27.0082 18.4271 26.9353 18.7433 26.8452C18.8479 26.8157 18.9397 26.7878 19.0197 26.7627L18.8916 25.0985C18.6444 25.1533 18.3852 25.2009 18.1211 25.2402C17.1758 25.3807 16.4278 25.3361 15.8344 25.1038C15.3443 24.9117 14.7226 24.43 14.5429 23.2233L14.5155 23.0392C14.4281 22.4519 14.489 21.9596 14.6961 21.5768C14.8626 21.269 15.2114 20.8796 15.9289 20.7732C16.5307 20.6836 17.004 20.8085 17.3352 21.1436C17.6187 21.4315 17.7953 21.8664 17.8915 22.5137L17.9207 22.7093L19.7314 22.44C19.735 22.357 19.7367 22.2731 19.7372 22.1897C19.7385 21.9459 19.7208 21.6965 19.6837 21.4483C19.5919 20.831 19.3967 20.3144 19.1031 19.9131C18.8258 19.5342 18.4532 19.2728 17.9631 19.1139L17.9639 19.1134Z" fill="white"/>
</g>
</g>
<path id="Vector_4" d="M28.4233 27.3495C28.7359 26.5693 28.8578 25.8134 28.785 25.1029C28.7086 24.3589 28.4021 23.6825 27.8749 23.0913C27.4806 22.6493 26.9464 22.2612 26.2823 21.9336C26.6951 22.1009 27.0925 22.2762 27.4634 22.4555C27.8568 22.6453 28.2445 22.8498 28.6158 23.0626L29.2768 23.4414L30.8275 19.5735L32.3848 20.1979L33.7112 16.2474L22.4908 11.7495L21.1644 15.6999L24.5771 17.0678C23.9267 16.9808 23.3395 17.0188 22.8198 17.1826C21.8033 17.5027 21.0744 18.1986 20.6527 19.2508L20.6094 19.3585C20.3577 19.9868 20.2902 20.6178 20.4085 21.2346C20.4566 21.4854 20.5273 21.7278 20.62 21.9596C20.4505 22.0643 20.2884 22.1835 20.1352 22.3159C19.514 22.8542 19.0141 23.5871 18.6503 24.4954L18.581 24.668C18.1434 25.7599 18.0096 26.7905 18.1832 27.7319C18.358 28.6807 18.8079 29.528 19.5201 30.25C20.2019 30.9405 21.0951 31.5101 22.1751 31.9433C22.5668 32.1005 22.9553 32.2285 23.3289 32.3248C23.7095 32.4228 24.0088 32.4828 24.2437 32.5084L24.7078 32.5592L26.4183 29.0366L27.206 29.3523L27.5107 28.9439C27.686 28.709 27.8524 28.4582 28.0065 28.1986C28.165 27.9306 28.3059 27.6449 28.4242 27.349L28.4233 27.3495Z" fill="#FFF310"/>
<g id="Group_3">
<path id="Vector_5" d="M27.8752 23.0913C27.4809 22.6493 26.9466 22.2612 26.2825 21.9336C26.6954 22.1009 27.0928 22.2762 27.4637 22.4555C27.8571 22.6453 28.2447 22.8498 28.6161 23.0626L29.2771 23.4414L30.8277 19.5735L32.3851 20.1979L33.7114 16.2474L22.491 11.7495L21.1647 15.6999L24.5769 17.0678C23.9265 16.9808 23.3392 17.0188 22.8195 17.1826C21.8031 17.5027 21.0741 18.1986 20.6525 19.2508L20.6092 19.3585C20.3575 19.9868 20.29 20.6178 20.4083 21.2346C20.4564 21.4854 20.5271 21.7278 20.6198 21.9596C20.4502 22.0643 20.2882 22.1835 20.135 22.3159C19.5137 22.8542 19.0139 23.5871 18.6501 24.4954L18.5808 24.668C18.1432 25.7599 18.0094 26.7905 18.1829 27.7319C18.3578 28.6807 18.8077 29.528 19.5199 30.25C20.2017 30.9405 21.0949 31.5101 22.1749 31.9433C22.5665 32.1005 22.9551 32.2285 23.3286 32.3248C23.7092 32.4228 24.0086 32.4828 24.2435 32.5084L24.7076 32.5592L26.4181 29.0366L27.2058 29.3523L27.5105 28.9439C27.6858 28.709 27.8522 28.4582 28.0063 28.1986C28.1648 27.9306 28.3057 27.6449 28.424 27.349C28.7366 26.5688 28.8585 25.8129 28.7856 25.1025C28.7092 24.3585 28.4028 23.6821 27.8756 23.0908L27.8752 23.0913ZM27.4358 27.8612C27.2941 28.1005 27.1418 28.3297 26.9788 28.5483L24.1742 27.4241L24.4943 26.6258C24.6789 26.1657 24.7402 25.8147 24.6784 25.5727C24.6166 25.3312 24.406 25.1378 24.0466 24.9939C23.7084 24.8583 23.4156 24.8658 23.167 25.0168C22.9189 25.1678 22.7109 25.4518 22.5436 25.869L22.4743 26.0416C22.2032 26.7176 22.227 27.2572 22.5454 27.6603C22.8637 28.0635 23.4077 28.4193 24.1773 28.7275C24.429 28.8282 24.6771 28.9174 24.9217 28.9947C25.1663 29.0719 25.395 29.1364 25.6079 29.1885L24.3155 31.8505C24.1155 31.8285 23.8413 31.7733 23.4933 31.6836C23.1454 31.594 22.7878 31.4761 22.4213 31.3291C21.4216 30.9282 20.6114 30.4138 19.9915 29.7855C19.3711 29.1567 18.9852 28.4326 18.8342 27.6126C18.6828 26.7927 18.8033 25.8933 19.1954 24.9153L19.2647 24.7426C19.5906 23.9302 20.025 23.2882 20.5686 22.8175C20.856 22.5685 21.1722 22.3835 21.5157 22.259C21.2918 21.9124 21.139 21.53 21.0587 21.111C20.9638 20.6182 21.0189 20.1166 21.2238 19.6058L21.2671 19.498C21.6133 18.6353 22.1965 18.0741 23.0187 17.8149C23.8404 17.5557 24.8842 17.6798 26.1496 18.1875C26.3934 18.2851 26.6278 18.3845 26.8574 18.4838L27.2769 17.4374L26.8128 17.2515L21.9912 15.3184L22.8955 12.6259L27.7171 14.559L32.6897 16.5525L32.884 16.6302L31.9797 19.3227L31.7854 19.245L30.4586 18.713L30.0131 19.8239L29.9005 20.1043L29.0011 22.3477L28.945 22.4881C28.5582 22.2665 28.16 22.0568 27.7511 21.8594C27.3418 21.662 26.9069 21.4708 26.4468 21.2867C25.7059 20.9896 25.1734 20.8659 24.8489 20.9154C24.5243 20.9648 24.3089 21.1225 24.202 21.3887L24.1848 21.432C24.1446 21.5327 24.1287 21.6391 24.1384 21.7512C24.1446 21.8294 24.1671 21.9031 24.2033 21.9733C24.6144 22.017 25.0352 22.1234 25.4661 22.2961C26.3073 22.6334 26.9453 23.0458 27.3806 23.5328C27.8156 24.0203 28.0637 24.5665 28.126 25.1714C28.1878 25.7763 28.0823 26.4205 27.8085 27.1036C27.7016 27.3698 27.5771 27.6224 27.4354 27.8617L27.4358 27.8612Z" fill="black"/>
<path id="Vector_6" d="M26.8863 23.9731C26.5221 23.5651 25.9613 23.2074 25.22 22.9098C24.8522 22.7624 24.4866 22.6683 24.1329 22.6308L23.7788 22.5928L23.615 22.2767C23.5373 22.127 23.4913 21.9676 23.4781 21.8033C23.46 21.591 23.4909 21.3817 23.5699 21.1843L23.5872 21.141C23.781 20.6571 24.1938 20.3441 24.7488 20.2597C25.2027 20.1904 25.8205 20.3211 26.6929 20.6712C27.1632 20.8598 27.6158 21.0585 28.0383 21.2625C28.2295 21.3547 28.4198 21.4506 28.6075 21.5486L30.0897 17.8511L31.5746 18.4463L32.0563 17.0118L23.2993 13.5011L22.8175 14.9356L28.1377 17.0683L27.2184 19.3616L26.5936 19.0905C26.3353 18.9784 26.1158 18.8865 25.903 18.8013C24.789 18.3549 23.8856 18.2353 23.2176 18.4459C22.5893 18.6437 22.1526 19.0685 21.8819 19.7436L21.8387 19.8513C21.6806 20.2452 21.6382 20.616 21.7093 20.9847C21.7737 21.3212 21.8925 21.6197 22.0722 21.8987L22.5226 22.5968L21.7415 22.8803C21.4686 22.9792 21.2267 23.1222 21.0019 23.3169C20.5414 23.7157 20.1639 24.2777 19.8791 24.9877L19.8098 25.1604C19.4667 26.0161 19.3576 26.8002 19.4848 27.4913C19.6124 28.1845 19.9321 28.7823 20.4619 29.3192C21.0147 29.8795 21.757 30.3485 22.667 30.7136C23.0056 30.8496 23.339 30.96 23.6578 31.0417C23.7633 31.0686 23.8565 31.0911 23.9382 31.1097L24.6672 29.608C24.4261 29.5303 24.1784 29.4411 23.9307 29.3417C23.0436 28.9863 22.4206 28.5699 22.0254 28.0701C21.6991 27.6573 21.4055 26.927 21.8594 25.7949L21.9287 25.6222C22.1495 25.0712 22.4506 24.6769 22.8228 24.4508C23.1218 24.2689 23.6194 24.1091 24.2927 24.3788C24.8575 24.6054 25.2032 24.9515 25.3198 25.4085C25.4191 25.7997 25.352 26.2647 25.1087 26.8722L25.035 27.0555L26.734 27.7368C26.779 27.6665 26.8228 27.5955 26.8651 27.5235C26.9892 27.3138 27.0996 27.0895 27.1932 26.8563C27.4255 26.277 27.5173 25.7326 27.467 25.2381C27.4188 24.7709 27.229 24.3572 26.8863 23.9731Z" fill="black"/>
</g>
</g>
</g>
</g>
<defs>
<clipPath id="clip0_1_418">
<rect width="40" height="40" fill="white"/>
</clipPath>
</defs>
</svg>
