<svg width="40" height="40" viewBox="0 0 40 40" fill="none" xmlns="http://www.w3.org/2000/svg">
<g id="Frame 15" clip-path="url(#clip0_23_7)">
<g id="Group 102">
<circle id="Ellipse 2" cx="20" cy="20" r="19.5" stroke="#01C1FE"/>
<path id="Vector" d="M28.7732 15.1498C27.9548 14.2351 26.5144 13.7777 24.4522 13.7777H23.827V11.0484H27.8208L27.5163 7.36841H13.9354V14.4123L12.5632 15.0501V20.263C12.5632 22.1128 13.0179 23.5314 13.9273 24.5179C14.8366 25.5045 16.2566 25.9977 18.1874 25.9977C19.5189 25.9977 20.598 25.7756 21.4261 25.3305C22.2543 24.8862 22.8616 24.237 23.2481 23.3835C23.6337 22.5301 23.827 21.4897 23.827 20.2638V17.5663C24.522 17.5737 24.988 17.7411 25.2219 18.071C25.4606 18.4083 25.5799 19.0372 25.5799 19.9567V22.6861C25.5799 23.9234 25.4297 24.9066 25.1301 25.6376C24.8305 26.3685 24.3499 26.892 23.6898 27.2089C23.0289 27.5257 22.1601 27.6842 21.0835 27.6842H10L10.4725 31.5789H21.4489C23.6232 31.5789 25.3307 31.2825 26.5705 30.6896C27.8103 30.0967 28.6912 29.1305 29.2149 27.792C29.7386 26.4526 30 24.6698 30 22.4411V19.5125C30 17.5189 29.5908 16.0644 28.7732 15.1498ZM19.8786 10.8491V13.839H17.8415L17.9122 10.8491H19.8786ZM19.2843 21.6661C19.0708 21.9984 18.7054 22.1642 18.1866 22.1642C17.6678 22.1642 17.3024 21.9984 17.0889 21.6661C16.8753 21.3337 16.769 20.8404 16.769 20.1862V17.5034H19.6042V20.1862C19.6042 20.8404 19.497 21.3337 19.2843 21.6661Z" fill="white"/>
</g>
</g>
<defs>
<clipPath id="clip0_23_7">
<rect width="40" height="40" fill="white"/>
</clipPath>
</defs>
</svg>
